<?xml version="1.0" encoding="UTF-8" standalone="no"?>
<!-- Created with Inkscape (http://www.inkscape.org/) -->

<svg
   width="34.814358mm"
   height="43.006241mm"
   viewBox="0 0 34.814358 43.006241"
   version="1.1"
   id="svg1"
   inkscape:version="1.4 (86a8ad7, 2024-10-11)"
   sodipodi:docname="dibujo-1.svg"
   xml:space="preserve"
   xmlns:inkscape="http://www.inkscape.org/namespaces/inkscape"
   xmlns:sodipodi="http://sodipodi.sourceforge.net/DTD/sodipodi-0.dtd"
   xmlns="http://www.w3.org/2000/svg"
   xmlns:svg="http://www.w3.org/2000/svg"><sodipodi:namedview
     id="namedview1"
     pagecolor="#ffffff"
     bordercolor="#000000"
     borderopacity="0.25"
     inkscape:showpageshadow="2"
     inkscape:pageopacity="0.0"
     inkscape:pagecheckerboard="0"
     inkscape:deskcolor="#d1d1d1"
     inkscape:document-units="mm"
     showguides="false"
     inkscape:zoom="1.7959596"
     inkscape:cx="386.70135"
     inkscape:cy="1050.6918"
     inkscape:window-width="2240"
     inkscape:window-height="1294"
     inkscape:window-x="-11"
     inkscape:window-y="-11"
     inkscape:window-maximized="1"
     inkscape:current-layer="layer1"><inkscape:page
       x="1.2822724e-14"
       y="0"
       width="34.814362"
       height="43.006241"
       id="page2"
       margin="0"
       bleed="0" /></sodipodi:namedview><defs
     id="defs1" /><g
     inkscape:label="Capa 1"
     inkscape:groupmode="layer"
     id="layer1"
     transform="translate(-146.50521,-244.12383)"><path
       style="fill:#000000;stroke:#000000;stroke-width:0;stroke-dasharray:none;stroke-opacity:1"
       d="m 159.02588,284.09759 c -2.68332,-1.72493 -4.90693,-3.2806 -4.94127,-3.45712 -0.0729,-0.37477 9.16663,-6.41108 9.85082,-6.43561 l 0.4256,-0.0127 0.0617,1.99459 0.0614,1.99463 1.10258,-0.14651 c 6.21955,-0.82501 10.78669,-6.11503 10.79451,-12.50315 l 0.002,-2.0637 -0.53666,-1.69899 c -0.29523,-0.93439 -0.87375,-2.19973 -1.2857,-2.81189 -0.94764,-1.40817 -0.95146,-1.3976 1.05254,-2.94244 1.99661,-1.53929 1.8708,-1.52077 2.64296,-0.38871 7.43455,10.89984 0.56696,26.12357 -12.32506,27.32174 l -1.46435,0.13606 v 1.96815 1.9682 l -0.28126,0.10803 c -0.15466,0.0594 -2.47682,-1.30325 -5.16014,-3.02815 z m -9.74666,-9.11007 c -6.87291,-10.69907 -0.30389,-24.91084 12.33135,-26.67845 l 1.77772,-0.24867 0.0609,-1.93475 0.0606,-1.93467 0.34516,-0.066 c 0.51811,-0.0991 10.00733,6.12206 9.93105,6.5108 -0.0841,0.42792 -9.47437,6.46616 -9.92257,6.38047 l -0.35364,-0.0675 -0.0611,-1.96071 -0.0611,-1.96068 -1.00283,0.12587 c -4.60553,0.57638 -8.61127,3.83953 -10.2818,8.37573 l -0.5094,1.3831 v 2.65988 2.65986 l 0.48497,1.40287 c 0.26679,0.77153 0.81489,1.92058 1.2181,2.55346 0.97398,1.52861 0.99098,1.47549 -0.94573,2.9498 -2.08031,1.5836 -1.95411,1.58979 -3.07172,-0.14981 z"
       id="path10-1"
       sodipodi:nodetypes="csscccsccssssscccscccscccssscccsscccssscc"
       inkscape:export-filename="invertir.svg"
       inkscape:export-xdpi="96"
       inkscape:export-ydpi="96" /><path
       style="fill:none;fill-opacity:1;stroke:#000000;stroke-width:2;stroke-dasharray:none;stroke-opacity:1"
       d="m 171.57311,256.49604 -15.32143,18.26177"
       id="path37" /></g></svg>
