<?xml version="1.0" encoding="UTF-8" standalone="no"?>
<!-- Created with Inkscape (http://www.inkscape.org/) -->

<svg
   width="44.599529mm"
   height="44.599533mm"
   viewBox="0 0 44.599529 44.599533"
   version="1.1"
   id="svg1"
   inkscape:version="1.4 (86a8ad7, 2024-10-11)"
   sodipodi:docname="dibujo-1.svg"
   xmlns:inkscape="http://www.inkscape.org/namespaces/inkscape"
   xmlns:sodipodi="http://sodipodi.sourceforge.net/DTD/sodipodi-0.dtd"
   xmlns="http://www.w3.org/2000/svg"
   xmlns:svg="http://www.w3.org/2000/svg">
  <sodipodi:namedview
     id="namedview1"
     pagecolor="#ffffff"
     bordercolor="#000000"
     borderopacity="0.25"
     inkscape:showpageshadow="2"
     inkscape:pageopacity="0.0"
     inkscape:pagecheckerboard="0"
     inkscape:deskcolor="#d1d1d1"
     inkscape:document-units="mm"
     showguides="false"
     inkscape:zoom="0.6349676"
     inkscape:cx="298.44042"
     inkscape:cy="387.42134"
     inkscape:window-width="2240"
     inkscape:window-height="1294"
     inkscape:window-x="-11"
     inkscape:window-y="-11"
     inkscape:window-maximized="1"
     inkscape:current-layer="layer1">
    <inkscape:page
       x="0"
       y="0"
       width="44.599529"
       height="44.599533"
       id="page2"
       margin="0"
       bleed="0" />
  </sodipodi:namedview>
  <defs
     id="defs1" />
  <g
     inkscape:label="Capa 1"
     inkscape:groupmode="layer"
     id="layer1"
     transform="translate(-69.574565,-112.30623)">
    <path
       style="fill:#000000;stroke-width:0.264984"
       d="m 90.54391,151.26226 c -0.0964,-0.0159 -0.45922,-0.0801 -0.80626,-0.14258 -0.34705,-0.0624 -0.99382,-0.22213 -1.43726,-0.35485 -0.44345,-0.1327 -1.20064,-0.42972 -1.682651,-0.66004 -0.482007,-0.23032 -1.239198,-0.66118 -1.682645,-0.95748 -0.578978,-0.38685 -1.053334,-0.78612 -1.6827,-1.41634 -0.48204,-0.48268 -1.088699,-1.16065 -1.348131,-1.50659 -0.259433,-0.34594 -0.448702,-0.65094 -0.420603,-0.67778 0.02809,-0.0269 0.145738,-0.0644 0.26142,-0.0833 0.115684,-0.019 0.573151,-0.0983 1.016598,-0.1762 0.443447,-0.0779 1.011342,-0.1612 1.261983,-0.18509 0.250646,-0.0239 0.854939,-0.011 1.342874,0.0288 0.487935,0.0398 1.246026,0.14825 1.684655,0.24115 0.43862,0.0929 1.00166,0.26323 1.2512,0.37853 0.24954,0.11529 0.76882,0.35964 1.15396,0.54299 0.38513,0.18335 1.07922,0.50533 1.54242,0.71549 0.4632,0.21018 1.09988,0.47442 1.41484,0.58721 0.31496,0.11279 0.99328,0.271 1.50737,0.35159 0.79535,0.12469 1.12809,0.1407 2.23175,0.10741 0.82706,-0.0249 1.71621,-0.10177 2.45386,-0.21212 0.63625,-0.0952 1.38555,-0.19518 1.66512,-0.22231 0.33808,-0.0328 0.50829,-0.0248 0.50829,0.024 0,0.0402 -0.19718,0.24328 -0.43818,0.45111 -0.24101,0.20782 -0.64326,0.53689 -0.89391,0.73125 -0.25064,0.19435 -0.63276,0.46549 -0.84915,0.60253 -0.21638,0.13702 -0.67386,0.39171 -1.01659,0.56594 -0.34275,0.17424 -0.81247,0.3951 -1.04383,0.49078 -0.23136,0.0957 -0.68884,0.25517 -1.0166,0.3544 -0.32776,0.0992 -0.91143,0.23347 -1.29704,0.29832 -0.45629,0.0767 -1.19073,0.12392 -2.10331,0.1351 -0.77121,0.01 -1.48107,0.004 -1.57748,-0.0118 z m 4.34684,-4.2763 c -0.13496,-0.0165 -0.56088,-0.0802 -0.94649,-0.14155 -0.38561,-0.0613 -0.9535,-0.20023 -1.26198,-0.30855 -0.30849,-0.10828 -1.19188,-0.48715 -1.96309,-0.84188 -0.77121,-0.35473 -1.63883,-0.74988 -1.92803,-0.87813 -0.28921,-0.12825 -0.77822,-0.29739 -1.08671,-0.37587 -0.30848,-0.0785 -0.860603,-0.19465 -1.22693,-0.25811 -0.366326,-0.0635 -1.044644,-0.11935 -1.507369,-0.12417 -0.462727,-0.004 -1.104478,0.0155 -1.426109,0.045 -0.321635,0.0296 -0.968401,0.12915 -1.437261,0.22129 -0.468859,0.0921 -0.937352,0.1892 -1.041096,0.2157 -0.17721,0.0453 -0.203117,0.0192 -0.428229,-0.4316 -0.131784,-0.26389 -0.320604,-0.68487 -0.419598,-0.93551 -0.09899,-0.25065 -0.257297,-0.77122 -0.351784,-1.15682 -0.09448,-0.38561 -0.212028,-0.97506 -0.2612,-1.30991 -0.06124,-0.41699 -0.07641,-1.01334 -0.04815,-1.89297 0.02662,-0.82849 0.09544,-1.59516 0.193945,-2.16056 0.08398,-0.482 0.26025,-1.25235 0.391722,-1.71187 0.131474,-0.45953 0.413674,-1.27981 0.627112,-1.82286 0.21344,-0.54306 0.585447,-1.36597 0.826688,-1.82869 0.241238,-0.46274 0.687341,-1.25148 0.991341,-1.75276 0.303996,-0.50129 0.851513,-1.33736 1.216703,-1.85792 0.365186,-0.52057 1.059361,-1.46706 1.542609,-2.10331 0.483246,-0.63625 1.195622,-1.55118 1.583056,-2.03318 0.38744,-0.48201 1.16785,-1.41271 1.73425,-2.06826 0.56641,-0.65553 1.3032,-1.50738 1.63733,-1.89298 0.33413,-0.38561 0.81321,-0.91407 1.06462,-1.17434 0.25142,-0.2603 0.49747,-0.47325 0.54679,-0.47325 0.0493,0 0.40035,0.34184 0.78007,0.75963 0.37973,0.41779 0.94281,1.05385 1.2513,1.41346 0.30848,0.3596 0.76678,0.89327 1.01845,1.18592 0.25166,0.29266 0.69529,0.81606 0.98583,1.16309 0.29054,0.34705 0.98469,1.21467 1.54254,1.92804 0.55786,0.71337 1.27024,1.64408 1.58307,2.06824 0.31285,0.42417 0.9635,1.37066 1.4459,2.10331 0.48242,0.73265 1.06748,1.67473 1.30014,2.09351 0.23267,0.4188 0.60343,1.1602 0.82392,1.64761 0.22048,0.48737 0.55152,1.31515 0.73565,1.83947 0.18412,0.5243 0.38699,1.20262 0.45081,1.50736 0.0638,0.30474 0.13004,0.61717 0.14717,0.69429 0.0171,0.0771 0.0813,0.53459 0.14266,1.01659 0.0823,0.64641 0.10134,1.19834 0.0728,2.10331 -0.0236,0.74851 -0.0941,1.54133 -0.18069,2.03319 -0.0782,0.44345 -0.19088,0.96863 -0.25059,1.16705 -0.10855,0.36079 -0.10855,0.36079 -0.6163,0.23281 -0.27927,-0.0703 -0.61819,-0.14708 -0.75314,-0.17044 -0.13497,-0.0234 -0.6286,-0.0616 -1.09698,-0.085 -0.51128,-0.0255 -1.16542,-0.008 -1.63696,0.0442 -0.43195,0.0477 -1.10564,0.14749 -1.4971,0.22176 -0.39146,0.0743 -0.96413,0.18435 -1.27262,0.24461 -0.42998,0.084 -0.81449,0.10015 -1.64759,0.0694 -0.73171,-0.0271 -1.28012,-0.087 -1.67879,-0.18344 -0.32565,-0.0788 -0.77523,-0.22545 -0.99907,-0.3259 -0.22384,-0.10048 -0.40699,-0.20464 -0.40699,-0.23153 0,-0.0269 0.33916,-0.2402 0.75369,-0.47403 0.41452,-0.23385 1.00608,-0.55089 1.31456,-0.70454 0.30849,-0.15366 0.90998,-0.42317 1.33665,-0.59892 0.42668,-0.17575 1.15232,-0.43431 1.61254,-0.57459 0.51209,-0.15608 1.29924,-0.3222 2.02864,-0.42809 0.9112,-0.13229 1.43954,-0.16998 2.24353,-0.16003 1.05165,0.013 1.05165,0.013 1.04495,-1.06592 -0.004,-0.70329 -0.0488,-1.29863 -0.12741,-1.70993 -0.0664,-0.34704 -0.19639,-0.90156 -0.2889,-1.23224 -0.0925,-0.33068 -0.28055,-0.89569 -0.41789,-1.25557 -0.13733,-0.35988 -0.43222,-1.0358 -0.65532,-1.50207 -0.22308,-0.46624 -0.61947,-1.21056 -0.88084,-1.65399 -0.26138,-0.44345 -0.55846,-0.93247 -0.66019,-1.08672 -0.10178,-0.15425 -0.43467,-0.64326 -0.73987,-1.0867 -0.30519,-0.44345 -0.79362,-1.12177 -1.0854,-1.50737 -0.29177,-0.38561 -0.92419,-1.19012 -1.40537,-1.78781 -0.48118,-0.5977 -1.12872,-1.38644 -1.43897,-1.75276 -0.31025,-0.36633 -1.09603,-1.28127 -1.74619,-2.03319 -0.65016,-0.75194 -1.20528,-1.3759 -1.2336,-1.38656 -0.0283,-0.0108 -0.31713,0.28754 -0.64179,0.6627 -0.32466,0.37516 -0.66917,0.78267 -0.76557,0.90557 -0.0964,0.1229 -0.55572,0.67652 -1.0207,1.23026 -0.46498,0.55376 -1.30254,1.57471 -1.86122,2.26881 -0.55869,0.69409 -1.444577,1.864 -1.968633,2.59978 -0.524058,0.73581 -1.119306,1.60342 -1.322778,1.92804 -0.203471,0.32462 -0.510117,0.82685 -0.681435,1.11605 -0.17132,0.2892 -0.435166,0.77135 -0.586329,1.07142 -0.151163,0.30006 -0.448986,0.97838 -0.66183,1.50736 -0.212846,0.52899 -0.494555,1.37617 -0.626021,1.88265 -0.131467,0.50648 -0.258839,1.07436 -0.28305,1.26198 -0.02423,0.18762 -0.07214,0.46732 -0.106524,0.62157 -0.03437,0.15424 -0.06224,0.72213 -0.06192,1.26198 2.65e-4,0.53985 0.03244,1.20239 0.07138,1.47231 0.03894,0.26993 0.08913,0.62293 0.111505,0.78445 0.0407,0.29367 0.0407,0.29367 1.662126,0.28044 0.891785,-0.008 1.889599,0.0123 2.217365,0.0436 0.327767,0.0313 1.080473,0.15141 1.672684,0.26697 0.9329,0.18206 1.24198,0.28024 2.31364,0.73493 0.68029,0.28863 1.52084,0.66834 1.86788,0.84379 0.34705,0.17546 0.86974,0.4078 1.16155,0.51632 0.29181,0.10852 0.7335,0.24688 0.98155,0.30746 0.24804,0.0606 0.65605,0.14213 0.9067,0.18123 0.25064,0.0391 0.90275,0.0713 1.44912,0.0716 0.79009,4.9e-4 1.17752,-0.0365 1.89298,-0.1803 0.49476,-0.0995 0.96266,-0.19419 1.03978,-0.21051 0.0772,-0.0164 0.34529,-0.0681 0.59594,-0.11504 0.25065,-0.0469 0.99206,-0.0863 1.64759,-0.0875 0.91613,-0.001 1.32165,0.0279 1.75276,0.1275 0.30848,0.0713 0.58489,0.15207 0.61424,0.17955 0.0293,0.0275 -0.0918,0.32971 -0.2692,0.67161 -0.17738,0.34191 -0.47372,0.8457 -0.6585,1.11953 -0.18478,0.27384 -0.37914,0.53211 -0.43192,0.57394 -0.0528,0.0418 -0.55342,0.0959 -1.11255,0.12028 -0.57139,0.0248 -1.59995,0.13765 -2.34869,0.25756 -0.83846,0.13427 -1.68283,0.22298 -2.27858,0.23939 -0.52057,0.0143 -1.05691,0.0126 -1.19187,-0.004 z m -3.81617,-5.22729 c -0.0167,-0.0514 -0.0799,-0.27215 -0.14045,-0.49054 -0.0753,-0.27138 -0.17733,-0.45357 -0.32236,-0.57562 -0.11671,-0.0982 -0.31381,-0.19329 -0.438,-0.21129 -0.12418,-0.018 -0.55631,-0.0827 -0.96028,-0.14378 -0.58841,-0.089 -0.86032,-0.17255 -1.36715,-0.42038 -0.34796,-0.17016 -0.84586,-0.4862 -1.106433,-0.70233 -0.260571,-0.21611 -0.616418,-0.57346 -0.790766,-0.7941 -0.174349,-0.22064 -0.425702,-0.59413 -0.558561,-0.83 -0.132864,-0.23586 -0.337023,-0.71377 -0.453692,-1.062 -0.116667,-0.34824 -0.212125,-0.71131 -0.212125,-0.80685 0,-0.13845 0.04446,-0.18258 0.219096,-0.21752 0.120502,-0.0241 0.538535,-0.0436 0.928961,-0.0434 0.459948,2.6e-4 0.910133,0.0486 1.27871,0.13687 0.31287,0.075 0.75325,0.21794 0.97862,0.3176 0.22537,0.0997 0.57768,0.308 0.78292,0.46296 0.20524,0.15495 0.67453,0.63436 1.04287,1.06535 0.36834,0.43097 0.76911,0.9498 0.89061,1.15292 0.12149,0.20312 0.24508,0.36932 0.27463,0.36932 0.0296,0 0.0537,-1.76237 0.0537,-3.91639 0,-2.15401 0.0194,-4.05767 0.043,-4.23033 0.0427,-0.31164 0.0408,-0.31527 -0.26292,-0.49355 -0.16827,-0.0987 -0.42859,-0.2989 -0.5785,-0.44474 -0.14991,-0.14582 -0.36693,-0.4668 -0.48227,-0.71328 -0.18097,-0.38671 -0.21305,-0.54592 -0.23411,-1.1616 -0.016,-0.46893 0.0116,-0.86707 0.0806,-1.16162 0.0578,-0.24648 0.19289,-0.65722 0.30026,-0.91276 0.10736,-0.25554 0.33389,-0.66909 0.5034,-0.91899 0.16951,-0.24992 0.48172,-0.62003 0.69381,-0.82247 0.21208,-0.20244 0.43536,-0.36808 0.49618,-0.36808 0.0608,0 0.30272,0.19718 0.53758,0.43818 0.23486,0.24101 0.55289,0.62749 0.70674,0.85886 0.15385,0.23137 0.34371,0.54686 0.42191,0.7011 0.0782,0.15425 0.20741,0.49207 0.28712,0.75074 0.0797,0.25867 0.16585,0.70115 0.19142,0.98331 0.0289,0.3193 0.0138,0.67119 -0.0401,0.9319 -0.0476,0.2304 -0.17478,0.59242 -0.28254,0.8045 -0.10776,0.21209 -0.31701,0.5005 -0.46499,0.64092 -0.14798,0.14041 -0.39244,0.31722 -0.54324,0.3929 -0.27418,0.13761 -0.27418,0.13761 -0.2577,2.30309 0.009,1.19102 0.0308,2.17979 0.0483,2.19728 0.0175,0.0174 0.0934,-0.0298 0.16866,-0.10503 0.0884,-0.0884 0.19876,-0.41671 0.31173,-0.92747 0.0962,-0.43482 0.25125,-0.97972 0.34462,-1.21087 0.0934,-0.23116 0.2756,-0.59654 0.40495,-0.81195 0.12936,-0.21541 0.43182,-0.57263 0.67214,-0.79382 0.24032,-0.22118 0.61914,-0.49927 0.84182,-0.61795 0.22269,-0.1187 0.64064,-0.28113 0.9288,-0.36099 0.28815,-0.0799 0.72113,-0.14518 0.96218,-0.14518 0.41073,0 0.44107,0.0112 0.48291,0.1779 0.0246,0.0979 0.0249,0.40545 7.7e-4,0.68358 -0.0241,0.27812 -0.0887,0.75233 -0.14347,1.05381 -0.062,0.3415 -0.20778,0.76659 -0.3866,1.12756 -0.15787,0.31868 -0.45971,0.78876 -0.67077,1.04465 -0.21185,0.25682 -0.62726,0.6365 -0.92739,0.84758 -0.299,0.21031 -0.88052,0.55947 -1.29224,0.77592 -0.43017,0.22614 -0.84006,0.49771 -0.96359,0.63841 -0.11824,0.13466 -0.27474,0.36228 -0.34778,0.50582 -0.073,0.14352 -0.1697,0.38716 -0.2148,0.5414 -0.0451,0.15424 -0.11383,0.61171 -0.15273,1.01659 -0.0389,0.4049 -0.0665,1.22966 -0.0612,1.83282 0.009,1.09664 0.009,1.09664 -0.53717,1.4022 -0.30067,0.16805 -0.57101,0.31607 -0.60075,0.32891 -0.0297,0.0128 -0.0677,-0.0188 -0.0844,-0.0701 z m -1.1266,-6.39909 c -0.26993,-0.13156 -0.75925,-0.36498 -1.08738,-0.51873 -0.40653,-0.19047 -0.7512,-0.42109 -1.08184,-0.72387 -0.26688,-0.24438 -0.63205,-0.66912 -0.8115,-0.94383 -0.179449,-0.27472 -0.402486,-0.73218 -0.495644,-1.01659 -0.142478,-0.43501 -0.169372,-0.65628 -0.169372,-1.3935 0,-0.87637 0,-0.87637 0.395618,-0.89718 0.217588,-0.0115 0.606008,0.028 0.863148,0.0876 0.25715,0.0596 0.70792,0.22564 1.00173,0.36891 0.37308,0.18192 0.6737,0.39998 0.99668,0.72297 0.28134,0.28133 0.56206,0.653 0.71673,0.94892 0.13984,0.26754 0.30536,0.65997 0.36781,0.87206 0.0625,0.21208 0.13056,0.5749 0.15133,0.80627 0.0208,0.23135 0.0814,0.56263 0.13467,0.73615 0.0533,0.17353 0.10228,0.3786 0.10888,0.45572 0.007,0.0771 0.008,0.19082 0.004,0.25267 -0.004,0.0619 -0.0854,0.19594 -0.18,0.29797 -0.0946,0.102 -0.22865,0.18509 -0.29797,0.18456 -0.0693,-4.8e-4 -0.34689,-0.10859 -0.61681,-0.24014 z"
       id="path2-1"
       sodipodi:nodetypes="sssssssssscssssssssssssssssssssssssssssscsssssssssssssssssssssssssssssssscssssssssssssssssssssssssssssssssssssssssssscsssssssssscssscsssssssssscssssssssssccssssssscssscssssssssssssssssssssssssscssssssssscssccssssssssssssssssssss" />
    <rect
       style="fill:none;stroke:#000000;stroke-width:3.023;stroke-linejoin:miter;stroke-dasharray:none;stroke-opacity:1"
       id="rect2-7-3-5"
       width="41.576527"
       height="41.576534"
       x="71.086067"
       y="113.81772"
       ry="10.707058" />
  </g>
</svg>
