<?xml version="1.0" encoding="UTF-8" standalone="no"?>
<!-- Created with Inkscape (http://www.inkscape.org/) -->

<svg
   width="31.679363mm"
   height="27.842922mm"
   viewBox="0 0 31.679363 27.842922"
   version="1.1"
   id="svg1"
   inkscape:version="1.4 (86a8ad7, 2024-10-11)"
   sodipodi:docname="dibujo-1.svg"
   xml:space="preserve"
   xmlns:inkscape="http://www.inkscape.org/namespaces/inkscape"
   xmlns:sodipodi="http://sodipodi.sourceforge.net/DTD/sodipodi-0.dtd"
   xmlns="http://www.w3.org/2000/svg"
   xmlns:svg="http://www.w3.org/2000/svg"><sodipodi:namedview
     id="namedview1"
     pagecolor="#ffffff"
     bordercolor="#000000"
     borderopacity="0.25"
     inkscape:showpageshadow="2"
     inkscape:pageopacity="0.0"
     inkscape:pagecheckerboard="0"
     inkscape:deskcolor="#d1d1d1"
     inkscape:document-units="mm"
     showguides="false"
     inkscape:zoom="0.63496761"
     inkscape:cx="596.88084"
     inkscape:cy="804.76546"
     inkscape:window-width="2240"
     inkscape:window-height="1294"
     inkscape:window-x="-11"
     inkscape:window-y="-11"
     inkscape:window-maximized="1"
     inkscape:current-layer="layer1"><inkscape:page
       x="0"
       y="0"
       width="31.679363"
       height="27.842922"
       id="page2"
       margin="0"
       bleed="0" /></sodipodi:namedview><defs
     id="defs1" /><g
     inkscape:label="Capa 1"
     inkscape:groupmode="layer"
     id="layer1"
     transform="translate(-389.31216,-190.67624)"><path
       style="fill:#000000;stroke-width:0.176972"
       d="m 403.84152,218.09725 c -0.54081,-0.22962 -1.13079,-0.47793 -1.31106,-0.55177 -0.31608,-0.12949 -4.22079,-1.75981 -9.34137,-3.90029 -1.35203,-0.56517 -2.76904,-1.15556 -3.1489,-1.31197 -0.37986,-0.15642 -0.69039,-0.29733 -0.69007,-0.31314 3.5e-4,-0.0158 0.14254,-0.0857 0.31606,-0.15514 0.17351,-0.0695 0.72636,-0.29305 1.22854,-0.49676 0.50219,-0.20372 1.6746,-0.6785 2.60536,-1.0551 l 1.69229,-0.68471 1.44491,0.6025 c 0.7947,0.33137 2.66701,1.11295 4.16069,1.73684 1.49368,0.6239 3.04151,1.27017 3.43961,1.43615 0.43006,0.17932 0.76262,0.292 0.81942,0.27765 0.0526,-0.0133 1.08592,-0.50128 2.29631,-1.08444 1.2104,-0.58315 2.68535,-1.29254 3.27767,-1.57642 0.59232,-0.28388 1.36141,-0.65285 1.70908,-0.81994 1.07352,-0.51595 1.73164,-0.83182 2.3503,-1.12805 l 0.59441,-0.28463 2.8435,0.96953 c 1.56392,0.53324 2.85212,0.99576 2.86267,1.02783 0.0116,0.0355 -0.15128,0.13846 -0.41776,0.26381 -0.24032,0.11303 -1.00585,0.47891 -1.70119,0.81305 -0.69534,0.33413 -2.30725,1.10817 -3.58203,1.72008 -1.27478,0.61191 -2.6233,1.25993 -2.99673,1.44005 -0.37342,0.18012 -1.15304,0.55442 -1.73249,0.83178 -0.57944,0.27735 -1.36959,0.65658 -1.75589,0.84274 -0.38629,0.18613 -0.89199,0.42839 -1.12377,0.53832 -0.23178,0.10998 -0.80069,0.38397 -1.26424,0.60896 -1.14478,0.55563 -1.42348,0.67982 -1.51444,0.67484 -0.0427,-0.002 -0.52006,-0.19214 -1.06088,-0.42177 z m 0.21071,-6.92361 c -0.47643,-0.20046 -2.46762,-1.03314 -4.42485,-1.85043 -1.95724,-0.81727 -4.89661,-2.04498 -6.53193,-2.72824 -1.63533,-0.68326 -3.15242,-1.31516 -3.37132,-1.40422 -0.2189,-0.0891 -0.40424,-0.16786 -0.41186,-0.1751 -0.008,-0.007 0.3822,-0.17245 0.86625,-0.36714 0.76556,-0.30792 3.29536,-1.33173 4.85617,-1.96531 l 0.51112,-0.20748 0.26147,0.10424 c 0.14382,0.0574 1.48359,0.61524 2.97727,1.23985 1.49368,0.6246 2.95809,1.23566 3.25426,1.35789 0.29616,0.12224 1.07415,0.44634 1.72888,0.72023 0.65472,0.27389 1.20923,0.49798 1.23225,0.49798 0.0379,0 0.74346,-0.33194 2.51726,-1.18437 0.34766,-0.16706 1.51709,-0.72927 2.59872,-1.24934 1.08163,-0.52007 2.60419,-1.25174 3.38346,-1.62592 l 1.41686,-0.68034 3.03141,1.0306 c 1.97233,0.67053 3.03141,1.05233 3.03141,1.09281 0,0.0552 -0.98425,0.53602 -7.07479,3.45646 -0.64624,0.30988 -1.54175,0.73986 -1.99002,0.95551 -0.44826,0.21565 -1.59464,0.76661 -2.54751,1.22434 -0.95287,0.45773 -2.34012,1.12443 -3.08278,1.48156 -0.74267,0.35712 -1.35372,0.64743 -1.35789,0.64512 -0.004,-0.002 -0.39741,-0.16821 -0.87384,-0.36867 z m -2.90308,-8.52158 c -2.07312,-0.86644 -5.5814,-2.33059 -7.79617,-3.25368 -2.21477,-0.9231 -4.03304,-1.68327 -4.04059,-1.68928 -0.007,-0.007 0.50868,-0.23346 1.14718,-0.5055 2.84992,-1.21414 4.88844,-2.0834 12.53912,-5.34696 1.49368,-0.63715 2.74056,-1.16801 2.77084,-1.17969 0.0498,-0.0192 1.0032,0.33534 5.82134,2.16471 1.65766,0.62938 4.59995,1.74509 8.24101,3.12495 0.76313,0.2892 1.14718,0.45723 1.14718,0.50191 0,0.0419 -0.50322,0.30783 -1.33448,0.70538 -1.57749,0.75442 -5.54881,2.6599 -7.67912,3.6845 -0.34766,0.16721 -0.84282,0.40461 -1.10036,0.52756 -0.25753,0.12294 -0.73162,0.34931 -1.05353,0.50304 -0.32192,0.15373 -1.16475,0.55923 -1.87296,0.90111 -2.47604,1.19529 -2.7402,1.32183 -2.87967,1.37935 -0.13317,0.0549 -0.33637,-0.024 -3.90979,-1.5174 z"
       id="path3-0" /></g></svg>
