<?xml version="1.0" encoding="UTF-8" standalone="no"?>
<!-- Created with Inkscape (http://www.inkscape.org/) -->

<svg
   width="44.599529mm"
   height="44.599541mm"
   viewBox="0 0 44.599529 44.599541"
   version="1.1"
   id="svg1"
   inkscape:version="1.4 (86a8ad7, 2024-10-11)"
   sodipodi:docname="dibujo-1.svg"
   xml:space="preserve"
   xmlns:inkscape="http://www.inkscape.org/namespaces/inkscape"
   xmlns:sodipodi="http://sodipodi.sourceforge.net/DTD/sodipodi-0.dtd"
   xmlns="http://www.w3.org/2000/svg"
   xmlns:svg="http://www.w3.org/2000/svg"><sodipodi:namedview
     id="namedview1"
     pagecolor="#ffffff"
     bordercolor="#000000"
     borderopacity="0.25"
     inkscape:showpageshadow="2"
     inkscape:pageopacity="0.0"
     inkscape:pagecheckerboard="0"
     inkscape:deskcolor="#d1d1d1"
     inkscape:document-units="mm"
     showguides="false"
     inkscape:zoom="0.89797979"
     inkscape:cx="305.68617"
     inkscape:cy="534.53319"
     inkscape:window-width="2240"
     inkscape:window-height="1294"
     inkscape:window-x="-11"
     inkscape:window-y="-11"
     inkscape:window-maximized="1"
     inkscape:current-layer="layer1"><inkscape:page
       x="0"
       y="0"
       width="44.599529"
       height="44.599541"
       id="page2"
       margin="0"
       bleed="0" /></sodipodi:namedview><defs
     id="defs1" /><g
     inkscape:label="Capa 1"
     inkscape:groupmode="layer"
     id="layer1"
     transform="translate(-69.574565,-166.25176)"><rect
       style="fill:none;stroke:#000000;stroke-width:3.023;stroke-linejoin:miter;stroke-dasharray:none;stroke-opacity:1"
       id="rect2-7-3-5-4"
       width="41.576527"
       height="41.576534"
       x="71.086067"
       y="167.76326"
       ry="10.707058" /><path
       style="fill:#000000;stroke-width:0.176972"
       d="m 90.564014,202.05109 c -0.540816,-0.22962 -1.130797,-0.47793 -1.311067,-0.55177 -0.316072,-0.12949 -4.22079,-1.75981 -9.341363,-3.90029 -1.352039,-0.56517 -2.769047,-1.15556 -3.148905,-1.31197 -0.379859,-0.15642 -0.690394,-0.29733 -0.690074,-0.31314 3.54e-4,-0.0158 0.142543,-0.0857 0.316061,-0.15514 0.173516,-0.0695 0.726362,-0.29305 1.228549,-0.49676 0.502185,-0.20372 1.674597,-0.6785 2.605357,-1.0551 l 1.692292,-0.68471 1.444906,0.6025 c 0.794701,0.33137 2.667013,1.11295 4.160692,1.73684 1.493682,0.6239 3.041505,1.27017 3.439607,1.43615 0.430063,0.17932 0.762619,0.292 0.819417,0.27765 0.05258,-0.0133 1.085922,-0.50128 2.296318,-1.08444 1.210398,-0.58315 2.685348,-1.29254 3.277668,-1.57642 0.592321,-0.28388 1.361409,-0.65285 1.709079,-0.81994 1.073519,-0.51595 1.731639,-0.83182 2.350299,-1.12805 l 0.59441,-0.28463 2.8435,0.96953 c 1.56392,0.53324 2.85212,0.99576 2.86267,1.02783 0.0116,0.0355 -0.15128,0.13846 -0.41776,0.26381 -0.24032,0.11303 -1.00585,0.47891 -1.70119,0.81305 -0.69534,0.33413 -2.30725,1.10817 -3.58203,1.72008 -1.27478,0.61191 -2.623299,1.25993 -2.996729,1.44005 -0.37342,0.18012 -1.153039,0.55442 -1.732486,0.83178 -0.579446,0.27735 -1.369593,0.65658 -1.755893,0.84274 -0.386293,0.18613 -0.891996,0.42839 -1.123775,0.53832 -0.231773,0.10998 -0.800684,0.38397 -1.264241,0.60896 -1.144778,0.55563 -1.423476,0.67982 -1.514434,0.67484 -0.04267,-0.002 -0.520062,-0.19214 -1.060878,-0.42177 z m 0.210708,-6.92361 c -0.476434,-0.20046 -2.467618,-1.03314 -4.424856,-1.85043 -1.957237,-0.81727 -4.896606,-2.04498 -6.53193,-2.72824 -1.635324,-0.68326 -3.152417,-1.31516 -3.371318,-1.40422 -0.218901,-0.0891 -0.404235,-0.16786 -0.411853,-0.1751 -0.0076,-0.007 0.382193,-0.17245 0.866242,-0.36714 0.765564,-0.30792 3.29536,-1.33173 4.856174,-1.96531 l 0.511116,-0.20748 0.261478,0.10424 c 0.143812,0.0574 1.483581,0.61524 2.977261,1.23985 1.493682,0.6246 2.958097,1.23566 3.254259,1.35789 0.296161,0.12224 1.074159,0.44634 1.728883,0.72023 0.654726,0.27389 1.209236,0.49798 1.232248,0.49798 0.03794,0 0.743461,-0.33194 2.517261,-1.18437 0.347666,-0.16706 1.517093,-0.72927 2.598728,-1.24934 1.081628,-0.52007 2.604186,-1.25174 3.383455,-1.62592 l 1.41686,-0.68034 3.03141,1.0306 c 1.97233,0.67053 3.03141,1.05233 3.03141,1.09281 0,0.0552 -0.98425,0.53602 -7.07479,3.45646 -0.646239,0.30988 -1.541749,0.73986 -1.990019,0.95551 -0.448261,0.21565 -1.594644,0.76661 -2.547509,1.22434 -0.952871,0.45773 -2.340119,1.12443 -3.082781,1.48156 -0.742666,0.35712 -1.353717,0.64743 -1.357893,0.64512 -0.0042,-0.002 -0.397404,-0.16821 -0.873836,-0.36867 z m -2.90308,-8.52158 c -2.073127,-0.86644 -5.581404,-2.33059 -7.796175,-3.25368 -2.214769,-0.9231 -4.033032,-1.68327 -4.040587,-1.68928 -0.0075,-0.007 0.50868,-0.23346 1.147185,-0.5055 2.849917,-1.21414 4.888433,-2.0834 12.53912,-5.34696 1.49368,-0.63715 2.740556,-1.16801 2.770832,-1.17969 0.04979,-0.0192 1.003203,0.33534 5.821348,2.16471 1.657656,0.62938 4.599945,1.74509 8.241005,3.12495 0.76313,0.2892 1.14718,0.45723 1.14718,0.50191 0,0.0419 -0.50322,0.30783 -1.33448,0.70538 -1.57749,0.75442 -5.54881,2.6599 -7.679119,3.6845 -0.347663,0.16721 -0.842824,0.40461 -1.100361,0.52756 -0.257527,0.12294 -0.731619,0.34931 -1.05353,0.50304 -0.321917,0.15373 -1.164747,0.55923 -1.872957,0.90111 -2.476044,1.19529 -2.740207,1.32183 -2.879668,1.37935 -0.133172,0.0549 -0.336378,-0.024 -3.909793,-1.5174 z"
       id="path3" /></g></svg>
