<?xml version="1.0" encoding="UTF-8" standalone="no"?>
<!-- Created with Inkscape (http://www.inkscape.org/) -->

<svg
   width="32.222355mm"
   height="23.016481mm"
   viewBox="0 0 32.222355 23.016481"
   version="1.1"
   id="svg1"
   inkscape:version="1.4 (86a8ad7, 2024-10-11)"
   sodipodi:docname="dibujo-1.svg"
   xml:space="preserve"
   xmlns:inkscape="http://www.inkscape.org/namespaces/inkscape"
   xmlns:sodipodi="http://sodipodi.sourceforge.net/DTD/sodipodi-0.dtd"
   xmlns="http://www.w3.org/2000/svg"
   xmlns:svg="http://www.w3.org/2000/svg"><sodipodi:namedview
     id="namedview1"
     pagecolor="#ffffff"
     bordercolor="#000000"
     borderopacity="0.25"
     inkscape:showpageshadow="2"
     inkscape:pageopacity="0.0"
     inkscape:pagecheckerboard="0"
     inkscape:deskcolor="#d1d1d1"
     inkscape:document-units="mm"
     showguides="false"
     inkscape:zoom="0.63496761"
     inkscape:cx="596.88084"
     inkscape:cy="804.76546"
     inkscape:window-width="2240"
     inkscape:window-height="1294"
     inkscape:window-x="-11"
     inkscape:window-y="-11"
     inkscape:window-maximized="1"
     inkscape:current-layer="layer1"><inkscape:page
       x="0"
       y="0"
       width="32.222355"
       height="23.016481"
       id="page2"
       margin="0"
       bleed="0" /></sodipodi:namedview><defs
     id="defs1" /><g
     inkscape:label="Capa 1"
     inkscape:groupmode="layer"
     id="layer1"
     transform="translate(-343.99267,-94.185715)"><ellipse
       style="fill:#000000;fill-opacity:1;stroke:#000000;stroke-width:0.514969;stroke-dasharray:none;stroke-opacity:1"
       id="path4-2-3-6-7-3"
       cx="360.10388"
       cy="105.69395"
       rx="2.9346914"
       ry="2.8924885"
       inkscape:export-filename="..\AppData\Roaming\QGIS\QGIS3\profiles\Programador\python\plugins\agroft_precision\resources\icons\redriego_icon.svg"
       inkscape:export-xdpi="11.767221"
       inkscape:export-ydpi="11.767221" /><path
       style="fill:#000000;stroke-width:0.237862"
       d="m 359.66521,117.10949 c -0.28763,-0.12476 -0.43032,-0.2595 -0.57497,-0.54292 -0.11557,-0.22643 -0.11914,-0.55612 -0.11814,-10.88763 l 7.7e-4,-10.654137 0.14152,-0.249877 c 0.44496,-0.785618 1.53348,-0.785618 1.97844,0 l 0.14153,0.249877 7.6e-4,10.654137 c 7.7e-4,10.33151 -0.002,10.6612 -0.11813,10.88763 -0.1472,0.28841 -0.29016,0.42086 -0.58912,0.54576 -0.2891,0.1208 -0.58034,0.11983 -0.86319,-0.003 z m -10.48043,-5.81005 c -0.10384,-0.0656 -1.27105,-1.20541 -2.59381,-2.53288 -2.43683,-2.44552 -2.59827,-2.63655 -2.59827,-3.0744 0,-0.43859 0.16025,-0.62772 2.62974,-3.10362 1.34006,-1.34355 2.51295,-2.48345 2.60642,-2.53311 0.24178,-0.128456 0.79301,-0.114726 1.05825,0.0263 0.5725,0.30453 0.76188,1.01603 0.42394,1.59268 -0.0927,0.1581 -0.7501,0.8544 -1.46098,1.54732 -0.71088,0.69292 -1.29251,1.27672 -1.29251,1.29733 0,0.0206 1.79349,0.0452 3.98553,0.0546 l 3.98553,0.0171 0.23792,0.18151 c 0.27215,0.20761 0.47319,0.5984 0.47319,0.91985 0,0.32144 -0.20104,0.71223 -0.47319,0.91985 l -0.23792,0.1815 -3.98553,0.0171 c -2.19204,0.009 -3.98553,0.0305 -3.98553,0.0469 0,0.0164 0.63422,0.66007 1.40936,1.43039 1.33931,1.33095 1.41303,1.4166 1.48342,1.7234 0.128,0.55798 -0.1059,1.07682 -0.58872,1.30594 -0.29757,0.1412 -0.83932,0.13223 -1.07684,-0.0178 z m 20.75087,0.0152 c -0.64296,-0.3169 -0.81509,-1.16118 -0.35873,-1.7595 0.0833,-0.1092 0.71885,-0.7456 1.41236,-1.41422 0.6935,-0.66863 1.26092,-1.23762 1.26092,-1.26445 0,-0.0268 -1.79349,-0.0565 -3.98553,-0.0658 l -3.98553,-0.0171 -0.23165,-0.17672 c -0.63265,-0.48262 -0.63265,-1.36664 0,-1.84927 l 0.23165,-0.17671 3.98553,-0.0171 c 2.19204,-0.009 3.98553,-0.0364 3.98553,-0.0599 0,-0.0236 -0.6345,-0.66722 -1.41001,-1.43039 -1.34528,-1.32389 -1.41338,-1.40241 -1.48342,-1.71043 -0.127,-0.55855 0.10698,-1.07702 0.58937,-1.30594 0.2659,-0.126166 0.80572,-0.132246 1.03277,-0.0117 0.0935,0.0496 1.26636,1.18957 2.60642,2.53311 2.46948,2.47591 2.62973,2.66504 2.62973,3.10362 0,0.43859 -0.16025,0.62772 -2.62973,3.10363 -1.34006,1.34354 -2.51296,2.48345 -2.60642,2.53311 -0.2259,0.12001 -0.7864,0.11236 -1.04326,-0.0143 z"
       id="path7-7"
       inkscape:export-filename="..\AppData\Roaming\QGIS\QGIS3\profiles\Programador\python\plugins\agroft_precision\resources\icons\dividirlineas_icon.svg"
       inkscape:export-xdpi="96"
       inkscape:export-ydpi="96" /></g></svg>
