<?xml version="1.0" encoding="UTF-8" standalone="no"?>
<!-- Created with Inkscape (http://www.inkscape.org/) -->

<svg
   width="44.599522mm"
   height="44.599541mm"
   viewBox="0 0 44.599522 44.599541"
   version="1.1"
   id="svg1"
   xml:space="preserve"
   xmlns="http://www.w3.org/2000/svg"
   xmlns:svg="http://www.w3.org/2000/svg"><defs
     id="defs1" /><g
     id="layer1"
     transform="translate(-73.393891,-103.18709)"><path
       style="fill:#000000;stroke-width:0.221942"
       d="m 95.64649,135.5611 -2.831746,-2.83398 0.01553,-1.84748 0.01553,-1.84748 2.814843,-0.0153 c 2.212941,-0.0119 2.824885,6.6e-4 2.861806,0.0587 0.06047,0.0953 0.06187,9.1525 0.0017,9.24767 -0.03052,0.048 -0.982271,-0.86565 -2.87734,-2.7622 z m -3.619268,-8.39337 c -0.25593,-0.36335 -0.746351,-1.057 -1.089824,-1.54146 -0.343473,-0.48445 -0.904536,-1.2772 -1.246811,-1.76167 -0.342272,-0.48444 -1.602844,-2.26814 -2.801267,-3.96374 l -2.178949,-3.08291 0.01589,-1.92189 0.01589,-1.92189 0.162821,-0.16275 0.162819,-0.16275 h 10.626047 10.626042 l 0.16282,0.16275 0.16283,0.16275 0.0157,1.92189 0.0157,1.92189 -2.04171,2.88297 c -1.12292,1.58564 -2.87407,4.0625 -3.89143,5.50415 l -1.849753,2.62119 -3.200821,8.2e-4 -3.200822,8.3e-4 z"
       id="path1" /><rect
       style="fill:none;stroke:#000000;stroke-width:3.023;stroke-linejoin:miter;stroke-dasharray:none;stroke-opacity:1"
       id="rect2"
       width="41.576527"
       height="41.576534"
       x="74.905388"
       y="104.69858"
       ry="10.707058" /></g></svg>
