<?xml version="1.0" encoding="UTF-8" standalone="no"?>
<!-- Created with Inkscape (http://www.inkscape.org/) -->

<svg
   width="44.599529mm"
   height="44.599541mm"
   viewBox="0 0 44.599529 44.599541"
   version="1.1"
   id="svg1"
   inkscape:version="1.4 (86a8ad7, 2024-10-11)"
   sodipodi:docname="dibujo-1.svg"
   xml:space="preserve"
   xmlns:inkscape="http://www.inkscape.org/namespaces/inkscape"
   xmlns:sodipodi="http://sodipodi.sourceforge.net/DTD/sodipodi-0.dtd"
   xmlns="http://www.w3.org/2000/svg"
   xmlns:svg="http://www.w3.org/2000/svg"><sodipodi:namedview
     id="namedview1"
     pagecolor="#ffffff"
     bordercolor="#000000"
     borderopacity="0.25"
     inkscape:showpageshadow="2"
     inkscape:pageopacity="0.0"
     inkscape:pagecheckerboard="0"
     inkscape:deskcolor="#d1d1d1"
     inkscape:document-units="mm"
     showguides="false"
     inkscape:zoom="0.89797979"
     inkscape:cx="242.21035"
     inkscape:cy="795.11812"
     inkscape:window-width="2240"
     inkscape:window-height="1294"
     inkscape:window-x="-11"
     inkscape:window-y="-11"
     inkscape:window-maximized="1"
     inkscape:current-layer="layer1"><inkscape:page
       x="0"
       y="0"
       width="44.599529"
       height="44.599541"
       id="page2"
       margin="0"
       bleed="0" /></sodipodi:namedview><defs
     id="defs1" /><g
     inkscape:label="Capa 1"
     inkscape:groupmode="layer"
     id="layer1"
     transform="translate(-69.574565,-220.29036)"><rect
       style="fill:none;stroke:#000000;stroke-width:3.023;stroke-linejoin:miter;stroke-dasharray:none;stroke-opacity:1"
       id="rect2-7-3-5-3"
       width="41.576527"
       height="41.576534"
       x="71.086067"
       y="221.80185"
       ry="10.707058" /><ellipse
       style="fill:#000000;fill-opacity:1;stroke:#000000;stroke-width:0.300065;stroke-dasharray:none;stroke-opacity:1"
       id="path4-2-3-6"
       cx="77.491074"
       cy="231.14732"
       rx="1.7100028"
       ry="1.6854118" /><ellipse
       style="fill:#000000;fill-opacity:1;stroke:#000000;stroke-width:0.300065;stroke-dasharray:none;stroke-opacity:1"
       id="path4-2-3-6-4"
       cx="103.27232"
       cy="242.5901"
       rx="1.7100028"
       ry="1.6854118" /><ellipse
       style="fill:#000000;fill-opacity:1;stroke:#000000;stroke-width:0.300065;stroke-dasharray:none;stroke-opacity:1"
       id="path4-2-3-6-0"
       cx="91.02462"
       cy="250.27919"
       rx="1.7100028"
       ry="1.6854118" /><ellipse
       style="fill:#000000;fill-opacity:1;stroke:#000000;stroke-width:0.300065;stroke-dasharray:none;stroke-opacity:1"
       id="path4-2-3-6-6"
       cx="98.558037"
       cy="257.8125"
       rx="1.7100028"
       ry="1.6854118" /><ellipse
       style="fill:#000000;fill-opacity:1;stroke:#000000;stroke-width:0.300065;stroke-dasharray:none;stroke-opacity:1"
       id="path4-2-3-6-9"
       cx="84.709824"
       cy="255.89732"
       rx="1.7100028"
       ry="1.6854118" /><ellipse
       style="fill:#000000;fill-opacity:1;stroke:#000000;stroke-width:0.300065;stroke-dasharray:none;stroke-opacity:1"
       id="path4-2-3-6-60"
       cx="84.709824"
       cy="242.5901"
       rx="1.7100028"
       ry="1.6854118" /><path
       style="fill:none;fill-opacity:1;stroke:#000000;stroke-width:1;stroke-dasharray:none;stroke-opacity:1"
       d="m 77.49107,231.14732 h 7.071429 l 0.147323,11.44279 h 18.562498"
       id="path5" /><path
       style="fill:none;fill-opacity:1;stroke:#000000;stroke-width:1;stroke-dasharray:none;stroke-opacity:1"
       d="m 84.709822,242.59011 v 13.30721"
       id="path6" /><path
       style="fill:none;fill-opacity:1;stroke:#000000;stroke-width:1;stroke-dasharray:none;stroke-opacity:1"
       d="M 98.558037,242.59011 V 257.8125"
       id="path8" /><path
       style="fill:none;fill-opacity:1;stroke:#000000;stroke-width:1;stroke-dasharray:none;stroke-opacity:1"
       d="M 98.096049,250.27919 H 91.02462"
       id="path9" /><path
       style="fill:#000000;stroke-width:0.315649"
       d="m 93.969914,240.23214 c -1.053154,-0.677 -1.925869,-1.28757 -1.939357,-1.35685 -0.02859,-0.14709 3.597721,-2.51622 3.866249,-2.52585 l 0.167041,-0.005 0.02415,0.78284 0.02415,0.78285 0.432741,-0.0575 c 2.441053,-0.3238 4.233562,-2.40003 4.236632,-4.90724 l 9.4e-4,-0.80996 -0.21063,-0.66682 c -0.11587,-0.36673 -0.34293,-0.86335 -0.50461,-1.10361 -0.371925,-0.55268 -0.373425,-0.54853 0.4131,-1.15485 0.78363,-0.60414 0.73425,-0.59687 1.03731,-0.15256 2.91791,4.27797 0.22252,10.25298 -4.837339,10.72324 l -0.574732,0.0534 v 0.77246 0.77248 l -0.110392,0.0424 c -0.06075,0.0233 -0.972097,-0.5115 -2.025251,-1.18849 z m -3.825376,-3.57552 c -2.697477,-4.19917 -0.119264,-9.77701 4.839816,-10.47076 l 0.697718,-0.0976 0.02393,-0.75935 0.02382,-0.75932 0.135473,-0.0259 c 0.20335,-0.0389 3.92768,2.40279 3.89774,2.55536 -0.033,0.16795 -3.718505,2.53784 -3.894413,2.50421 l -0.1388,-0.0265 -0.02403,-0.76954 -0.02403,-0.76953 -0.393593,0.0494 c -1.807579,0.22622 -3.379749,1.50694 -4.035403,3.28731 l -0.199925,0.54284 v 1.04395 1.04394 l 0.190342,0.5506 c 0.104707,0.30281 0.319828,0.75379 0.478077,1.00218 0.382266,0.59995 0.388943,0.5791 -0.371181,1.15774 -0.816475,0.62153 -0.766945,0.62396 -1.205585,-0.0588 z"
       id="path10"
       sodipodi:nodetypes="csscccsccssssscccscccscccssscccsscccssscc" /></g></svg>
